<?xml version="1.0" encoding="utf-8"?>
<!-- Generator: Adobe Illustrator 19.1.0, SVG Export Plug-In . SVG Version: 6.00 Build 0)  -->
<svg version="1.1" id="Ebene_1" xmlns="http://www.w3.org/2000/svg" xmlns:xlink="http://www.w3.org/1999/xlink" x="0px" y="0px"
	 viewBox="-145.6 268.8 48.2 48.2" enable-background="new -145.6 268.8 48.2 48.2" xml:space="preserve">
<rect x="-145.6" y="268.8" width="48.2" height="48.2"/>
<path fill="#FFFFFF" d="M-108,305.8c0,0.4,0,0.4-0.4,0.4h-7.2c-0.4,0-0.4,0-0.4-0.4v-8.7c0-0.1-0.2-0.2-0.3-0.2s-0.2,0-0.3,0.1
	l-4.4,4.6c-0.1,0.1-0.3,0.2-0.5,0.2s-0.4-0.1-0.5-0.2l-4.4-4.6c-0.1-0.1-0.2-0.1-0.3-0.1c-0.2,0-0.3,0.1-0.3,0.2v8.7
	c0,0.4,0,0.4-0.4,0.4h-7.2c-0.4,0-0.4,0-0.4-0.4V278c0-0.2,0.1-0.3,0.3-0.3c0.1,0,0.2,0,0.4,0.2l12.6,12.7c0.1,0.1,0.2,0.2,0.2,0.2
	c0.1,0,0.1,0,0.2-0.2l12.6-12.7c0.2-0.2,0.4-0.2,0.4-0.2c0.2,0,0.3,0.1,0.3,0.3L-108,305.8L-108,305.8z"/>
</svg>
