<?xml version="1.0" encoding="utf-8"?>
<!-- Generator: Adobe Illustrator 18.1.1, SVG Export Plug-In . SVG Version: 6.00 Build 0)  -->
<!DOCTYPE svg PUBLIC "-//W3C//DTD SVG 1.1//EN" "http://www.w3.org/Graphics/SVG/1.1/DTD/svg11.dtd">
<svg version="1.1" id="Layer_1" xmlns="http://www.w3.org/2000/svg" xmlns:xlink="http://www.w3.org/1999/xlink" x="0px" y="0px"
	 viewBox="-373 424.8 252.5 153.2" enable-background="new -373 424.8 252.5 153.2" xml:space="preserve">
<path d="M-305.5,504c-0.2,0.3-0.5,1.1-1,2.5c-0.5,1.4-1,3.1-1.7,5.2c-0.7,2.1-1.4,4.4-2.1,7c-0.8,2.6-1.6,5.2-2.4,7.9
	c-0.8,2.7-1.6,5.3-2.3,7.9c-0.7,2.6-1.4,4.9-2,7c-0.6,2.1-1.1,3.8-1.5,5.2c-0.4,1.4-0.6,2.2-0.7,2.5c-0.2,0.8-0.6,1.8-1.1,2.8
	c-0.5,1-1.1,2-1.7,2.9c-0.7,0.9-1.4,1.7-2.2,2.3c-0.8,0.6-1.6,0.9-2.4,0.9c-1.4,0-2.4-0.5-3.1-1.4c-0.6-0.9-1-2.7-1-5.1
	c0-0.4,0-0.7,0-1.1s0-0.8,0.1-1.2c0-0.8,0.4-2.4,1-4.7c0.6-2.3,1.4-4.9,2.2-7.8c0.9-2.9,1.8-5.9,2.8-9c1-3.1,1.9-5.9,2.7-8.3
	c-2.3,2.6-4.9,5.2-7.6,7.8c-2.7,2.6-5.5,4.9-8.4,6.9c-2.9,2.1-5.7,3.7-8.6,5c-2.9,1.3-5.7,2-8.4,2c-3.1,0-5.7-0.7-7.9-2
	c-2.2-1.4-4-3.1-5.5-5.3c-1.4-2.2-2.5-4.7-3.2-7.4c-0.7-2.8-1.1-5.5-1.1-8.3c0-0.4,0-0.7,0-1c0-0.3,0-0.6,0.1-0.9
	c0.3-5,1-10.1,2.1-15.4c1.2-5.3,2.7-10.5,4.6-15.7c1.9-5.2,4.1-10.3,6.6-15.2c2.5-5,5.2-9.7,8.1-14.1c2.9-4.4,6-8.5,9.3-12.2
	c3.3-3.7,6.7-6.9,10.1-9.6c3.5-2.7,7-4.8,10.5-6.3c3.5-1.5,7-2.3,10.5-2.3c4,0,7.9,1.1,11.6,3.3c3.7,2.2,7.2,5.7,10.5,10.6
	c0.7,1.1,1.2,2.2,1.4,3.3c0.2,1.1,0.3,2.2,0.3,3.2c0,2.3-0.6,4.2-1.7,5.5c-1.1,1.4-2.4,2-4,2c-1.4,0-2.7-0.7-3.9-2.2
	c-1.2-1.5-2.6-3.6-4-6.4c-1.4-2.5-3-4.3-4.6-5.4c-1.7-1.1-3.5-1.7-5.5-1.7c-3.1,0-6.4,1.3-9.8,3.8c-3.5,2.5-6.9,5.9-10.4,10.1
	c-3.4,4.2-6.7,9-9.8,14.4c-3.1,5.4-5.9,10.9-8.3,16.5c-2.4,5.6-4.3,11.2-5.8,16.7c-1.4,5.5-2.1,10.4-2.1,14.8c0,1.5,0.1,3,0.3,4.5
	c0.2,1.5,0.6,2.9,1.1,4.2c0.5,1.2,1.3,2.3,2.2,3.1c0.9,0.8,2.1,1.2,3.6,1.2c1.6,0,3.5-0.5,5.5-1.6c2.1-1.1,4.2-2.5,6.4-4.3
	c2.2-1.8,4.4-3.8,6.7-6c2.2-2.2,4.3-4.5,6.3-6.8c1.9-2.3,3.6-4.5,5.1-6.6c1.5-2.1,2.6-3.9,3.4-5.5l6.1-18.3c0.7-2,1.7-3.4,2.9-4.2
	c1.2-0.8,2.4-1.2,3.7-1.2c0.6,0,1.2,0.1,1.8,0.3c0.6,0.2,1.2,0.5,1.6,1c0.5,0.4,0.9,1,1.2,1.7c0.3,0.7,0.4,1.5,0.4,2.5
	c0,2.5-0.2,4.8-0.7,7c-0.4,2.2-1,4.3-1.7,6.4c-0.7,2.1-1.4,4.2-2.3,6.3C-303.9,499.5-304.7,501.7-305.5,504z M-222.4,519.2
	c-1.9,2.6-4.2,5.1-6.7,7.6c-2.6,2.5-5.2,4.7-7.9,6.6c-2.7,1.9-5.4,3.5-8,4.6c-2.6,1.2-5,1.8-7.1,1.8s-3.8-0.7-5.1-2.1
	c-1.3-1.4-2-3.8-2-7.2c0-2.4,0.4-5.2,1.1-8.3c-1.1,2-2.6,4.1-4.3,6.2c-1.7,2.1-3.7,4-5.9,5.7s-4.7,3.1-7.4,4.2
	c-2.7,1.1-5.7,1.6-8.9,1.6c-1.4,0-2.8-0.2-4.2-0.5c-1.3-0.4-2.5-1-3.5-1.9c-1-0.9-1.8-2.1-2.4-3.5c-0.6-1.5-0.9-3.3-0.9-5.6
	c0-0.1,0.1-0.8,0.3-2.4c0.2-1.5,0.7-4,1.7-7.3c0.9-3.3,2.4-7.6,4.4-12.8c2-5.3,4.8-11.6,8.4-19.1c0.9-2,2-3.4,3.2-4.3
	c1.2-0.9,2.5-1.3,3.9-1.3c0.6,0,1.3,0.1,1.9,0.3c0.7,0.2,1.3,0.5,1.8,0.9c0.6,0.4,1,0.9,1.4,1.5c0.4,0.6,0.5,1.3,0.5,2.1
	c0,0.5-0.1,1-0.2,1.5c-0.2,0.9-0.7,2-1.4,3.5c-0.7,1.4-1.6,3.1-2.5,4.9c-1,1.8-2,3.8-3.1,6c-1.1,2.1-2.1,4.3-3,6.6
	c-0.9,2.3-1.7,4.6-2.4,7c-0.7,2.4-1,4.7-1.1,6.9c0,0.9,0.2,1.8,0.7,2.6c0.4,0.8,1.2,1.2,2.2,1.2c2.9,0,5.6-0.9,8.2-2.8
	c2.6-1.9,5-4.2,7.2-7c2.2-2.8,4.2-5.8,6-9c1.8-3.2,3.3-6.1,4.4-8.8c0.8-1.8,1.6-3.7,2.2-5.7c0.6-2,1.3-3.9,2.1-5.6
	c0.7-1.7,1.6-3.1,2.6-4.3c1-1.1,2.2-1.7,3.6-1.7c1.6,0,2.8,0.6,3.8,1.8c0.9,1.2,1.4,2.6,1.4,4.3c0,0.9-0.3,2.2-0.9,3.9
	c-0.6,1.6-1.3,3.5-2.2,5.6c-0.9,2.1-1.9,4.4-2.9,6.7c-1.1,2.4-2,4.8-2.9,7.3c-0.9,2.5-1.6,4.9-2.2,7.3c-0.6,2.4-0.9,4.6-0.9,6.6
	c0,1.9,1,2.8,2.9,2.8c1.4,0,3.1-0.5,5.1-1.4c2-0.9,4.1-2.3,6.4-3.9c2.2-1.7,4.4-3.7,6.6-6c2.2-2.3,4.2-4.8,5.9-7.4L-222.4,519.2z
	 M-220.4,515.3c-0.5,1.2-1,2.6-1.4,4.2c-0.5,1.6-0.7,3-0.7,4.3c0,0.8,0.1,1.4,0.4,1.9c0.3,0.5,0.8,0.7,1.5,0.7c0.9,0,2.1-0.3,3.5-1
	c1.4-0.6,2.9-1.5,4.5-2.6c1.6-1.1,3.3-2.3,5-3.7c1.7-1.4,3.5-2.8,5.2-4.3c1.7-1.5,3.3-3,4.9-4.4c1.6-1.5,3-2.8,4.2-4.1
	c0.4-0.4,0.8-0.6,1.3-0.8c0.5-0.2,0.9-0.2,1.3-0.2c0.9,0,1.6,0.4,2.2,1.1c0.6,0.7,0.9,1.7,0.9,2.9c0,1.1-0.3,2.3-0.9,3.7
	c-0.6,1.4-1.7,2.7-3.2,4c-2.8,3.1-5.6,6-8.5,8.7c-2.9,2.8-5.7,5.2-8.5,7.3c-2.8,2.1-5.6,3.8-8.4,5c-2.8,1.2-5.5,1.9-8.1,1.9
	c-1.8,0-3.3-0.3-4.5-0.9c-1.2-0.6-2.2-1.4-2.9-2.3c-0.7-1-1.2-2.2-1.5-3.5c-0.3-1.4-0.5-2.8-0.5-4.3c0-2.5,0.3-5.2,1-7.8
	c0.6-2.7,1.4-5.1,2.3-7.4c1.5-4.1,3.1-8.1,4.7-12.1c1.6-4,3-7.7,4.3-11l19.9-50.3c0.8-2,1.9-3.5,3.2-4.3c1.3-0.8,2.7-1.2,4.1-1.2
	c1.4,0,2.6,0.4,3.7,1.3c1.1,0.9,1.7,2.3,1.7,4.3c0,0.9-0.2,1.9-0.6,3c-0.4,1-0.8,2.2-1.4,3.4c-1.1,2.4-2.4,5.4-3.9,9
	c-1.5,3.5-3.1,7.4-4.9,11.5c-1.7,4.2-3.5,8.5-5.3,13c-1.8,4.5-3.6,8.9-5.3,13.1c-1.7,4.3-3.4,8.3-4.9,12.1
	C-218,509.2-219.3,512.5-220.4,515.3z M-127.1,501.2c0.6-0.4,1.2-0.8,1.7-1c0.5-0.3,1-0.4,1.5-0.4c1,0,1.7,0.4,2.2,1.3
	c0.5,0.9,0.7,1.9,0.7,3.2c0,1.4-0.3,2.7-0.9,4.1c-0.6,1.4-1.5,2.6-2.7,3.5c-4.7,4.2-8.9,8-12.6,11.4c-3.7,3.4-7.2,6.4-10.4,8.9
	c-3.3,2.5-6.5,4.4-9.6,5.7s-6.5,2-10,2c-3.3,0-5.9-0.7-7.7-2.2c-1.8-1.5-2.7-3.5-2.7-6c0-0.2,0-0.4,0-0.6c0-0.2,0-0.4,0.1-0.7
	c0.2-1.6,0.9-3.4,2-5.4c1.2-2,2.6-4.1,4.3-6.3s3.4-4.4,5.3-6.6c1.9-2.2,3.6-4.4,5.2-6.4c1.6-2,2.9-3.8,4-5.5c1.1-1.7,1.6-3,1.6-4.1
	c0-0.6-0.2-1.1-0.7-1.5c-0.4-0.4-1.2-0.5-2.2-0.5c-1.8,0-3.6,0.5-5.4,1.4c-1.9,0.9-3.7,2.1-5.5,3.7c-1.8,1.5-3.6,3.3-5.3,5.3
	c-1.7,2-3.4,4-4.9,6.2c-1.5,2.1-2.9,4.3-4.1,6.4c-1.3,2.2-2.3,4.1-3.2,6c-0.3,0.6-0.6,1.4-1.1,2.4c-0.5,1-1,2.2-1.6,3.5
	c-0.6,1.3-1.2,2.6-1.8,4c-0.6,1.4-1.2,2.7-1.7,3.9c-0.5,1.2-1,2.3-1.4,3.3c-0.4,1-0.7,1.6-0.9,2c-0.2,0.5-0.6,1.4-1.1,2.7
	c-0.5,1.3-1.1,2.8-1.7,4.6c-0.7,1.7-1.4,3.6-2.1,5.5c-0.7,1.9-1.4,3.7-2,5.5c-0.6,1.7-1.2,3.2-1.7,4.5c-0.5,1.3-0.8,2.2-0.9,2.7
	c-0.4,1.4-1,2.6-1.5,3.8c-0.6,1.2-1.3,2.2-2,3.2c-0.8,0.9-1.6,1.6-2.6,2.2c-1,0.5-2.1,0.8-3.3,0.8c-1.6,0-2.9-0.4-3.9-1.1
	c-1-0.8-1.5-2.2-1.5-4.3c0-1,0.1-2.1,0.4-3.2c0.3-1.1,0.6-2.2,1-3.2c0.4-1.1,0.8-2.1,1.2-3.1c0.4-1,0.8-2,1.2-2.9
	c2.4-5.2,4.8-10.4,7.2-15.6c2.5-5.2,4.8-10.4,7.1-15.5c2.3-5.1,4.4-10.2,6.3-15.1c1.9-4.9,3.5-9.7,4.8-14.2c0.4-0.9,0.8-2.3,1.4-4
	c0.6-1.7,1.3-3.4,2.1-5.1c0.8-1.7,1.7-3.1,2.7-4.3c1-1.2,2.1-1.8,3.2-1.8c1.8,0,3,0.4,3.8,1.2c0.8,0.8,1.2,2,1.2,3.5
	c0,0.3,0,0.8-0.1,1.5c-0.1,0.7-0.2,1.4-0.3,2.1c-0.1,0.8-0.3,1.5-0.4,2.1c-0.2,0.7-0.3,1.2-0.4,1.5c1.6-1.8,3.4-3.5,5.3-5.3
	c1.9-1.7,3.8-3.3,5.9-4.7c2-1.4,4.1-2.5,6.2-3.4c2.1-0.9,4.2-1.3,6.3-1.3c1.4,0,2.9,0.2,4.3,0.6c1.4,0.4,2.7,1,3.8,1.8
	c1.1,0.8,2,1.8,2.7,3c0.7,1.2,1.1,2.6,1.1,4.3c0,2.1-0.5,4.4-1.6,6.8c-1.1,2.4-2.4,4.8-4,7.3c-1.6,2.4-3.4,4.8-5.3,7.1
	c-1.9,2.3-3.7,4.4-5.3,6.3c-1.6,1.9-3,3.5-4.1,4.8c-1.1,1.3-1.7,2.2-1.7,2.7c0,0.6,0.2,1.1,0.6,1.5s1.1,0.6,2,0.6
	c0.7,0,1.8-0.4,3.3-1.2c1.4-0.8,3.5-2.3,6.1-4.3c2.6-2.1,5.9-4.8,9.9-8.3C-137.9,510.8-133,506.5-127.1,501.2z"/>
</svg>
